<svg width="22" height="19" viewBox="0 0 22 19" fill="none" xmlns="http://www.w3.org/2000/svg">
<path d="M19.75 2V7.5L7.2 9.72L4.75 0H1C0.734784 0 0.48043 0.105357 0.292893 0.292893C0.105357 0.48043 0 0.734784 0 1C0 1.26522 0.105357 1.51957 0.292893 1.70711C0.48043 1.89464 0.734784 2 1 2H3.22L6.45 15H19.75V13H8.01L7.68 11.67L21.75 9.18V2H19.75ZM6.75 16C6.45333 16 6.16332 16.088 5.91664 16.2528C5.66997 16.4176 5.47771 16.6519 5.36418 16.926C5.25065 17.2001 5.22094 17.5017 5.27882 17.7926C5.3367 18.0836 5.47956 18.3509 5.68934 18.5607C5.89912 18.7704 6.16639 18.9133 6.45736 18.9712C6.74834 19.0291 7.04994 18.9993 7.32403 18.8858C7.59811 18.7723 7.83238 18.58 7.9972 18.3334C8.16203 18.0867 8.25 17.7967 8.25 17.5C8.25 17.1022 8.09196 16.7206 7.81066 16.4393C7.52936 16.158 7.14782 16 6.75 16ZM18.75 16C18.4533 16 18.1633 16.088 17.9166 16.2528C17.67 16.4176 17.4777 16.6519 17.3642 16.926C17.2507 17.2001 17.2209 17.5017 17.2788 17.7926C17.3367 18.0836 17.4796 18.3509 17.6893 18.5607C17.8991 18.7704 18.1664 18.9133 18.4574 18.9712C18.7483 19.0291 19.0499 18.9993 19.324 18.8858C19.5981 18.7723 19.8324 18.58 19.9972 18.3334C20.162 18.0867 20.25 17.7967 20.25 17.5C20.25 17.1022 20.092 16.7206 19.8107 16.4393C19.5294 16.158 19.1478 16 18.75 16Z" fill="#0F4C81"/>
</svg>
